<?xml version="1.0" encoding="UTF-8" standalone="no"?>
<svg
   xmlns:dc="http://purl.org/dc/elements/1.1/"
   xmlns:cc="http://creativecommons.org/ns#"
   xmlns:rdf="http://www.w3.org/1999/02/22-rdf-syntax-ns#"
   xmlns:svg="http://www.w3.org/2000/svg"
   xmlns="http://www.w3.org/2000/svg"
   viewBox="0 0 1600 1066.6667"
   height="1066.6667"
   width="1600"
   xml:space="preserve"
   id="svg2"
   version="1.1"><metadata
     id="metadata8"><rdf:RDF><cc:Work
         rdf:about=""><dc:format>image/svg+xml</dc:format><dc:type
           rdf:resource="http://purl.org/dc/dcmitype/StillImage" /></cc:Work></rdf:RDF></metadata><defs
     id="defs6"><clipPath
       id="clipPath18"
       clipPathUnits="userSpaceOnUse"><path
         id="path16"
         d="M 0,800 H 1200 V 0 H 0 Z" /></clipPath><clipPath
       id="clipPath64"
       clipPathUnits="userSpaceOnUse"><path
         id="path62"
         d="M 0,800 H 1200 V 0 H 0 Z" /></clipPath></defs><g
     transform="matrix(1.3333333,0,0,-1.3333333,0,1066.6667)"
     id="g10"><g
       id="g12"><g
         clip-path="url(#clipPath18)"
         id="g14"><g
           transform="translate(1169.7695,400)"
           id="g20"><path
             id="path22"
             style="fill:#ffffd2;fill-opacity:1;fill-rule:nonzero;stroke:none"
             d="m 0,0 c 0,-184.48 -255.095,-334.031 -569.77,-334.031 -314.674,0 -569.769,149.551 -569.769,334.031 0,184.48 255.095,334.031 569.769,334.031 C -255.095,334.031 0,184.48 0,0" /></g><g
           transform="translate(1169.7695,400)"
           id="g24"><path
             id="path26"
             style="fill:none;stroke:#231f20;stroke-width:3;stroke-linecap:butt;stroke-linejoin:miter;stroke-miterlimit:10;stroke-dasharray:none;stroke-opacity:1"
             d="m 0,0 c 0,-184.48 -255.095,-334.031 -569.77,-334.031 -314.674,0 -569.769,149.551 -569.769,334.031 0,184.48 255.095,334.031 569.769,334.031 C -255.095,334.031 0,184.48 0,0 Z" /></g><g
           transform="translate(626.6074,233.1035)"
           id="g28"><path
             id="path30"
             style="fill:#ed1c24;fill-opacity:1;fill-rule:nonzero;stroke:none"
             d="M 0,0 H 67.791 L 55.908,28.972 c -4.98,12.223 -11.544,17.09 -19.467,17.09 h -5.205 c -7.922,0 -14.374,-4.867 -19.352,-16.977 z m -13.581,-33.16 c -0.453,-1.132 -1.357,-1.697 -2.603,-1.697 h -15.505 c -1.698,0 -2.263,0.905 -1.584,2.376 l 28.294,68.13 C 1.924,52.06 14.6,62.472 29.651,62.472 h 8.375 c 15.052,0 27.728,-10.299 34.631,-26.823 l 28.407,-68.13 c 0.679,-1.471 0.113,-2.376 -1.585,-2.376 H 83.975 c -1.245,0 -2.037,0.565 -2.49,1.697 l -7.356,17.995 H -6.225 Z" /></g><g
           transform="translate(839.1885,290.4854)"
           id="g32"><path
             id="path34"
             style="fill:#ed1c24;fill-opacity:1;fill-rule:nonzero;stroke:none"
             d="m 0,0 2.601,-11.764 c 0.453,-1.584 -0.338,-2.375 -2.036,-1.922 -11.537,2.036 -30.2,2.828 -38.91,2.828 -34.611,0 -44.452,-3.167 -44.452,-13.008 0,-7.014 5.543,-10.068 19.229,-10.972 l 32.575,-2.036 c 26.129,-1.583 38.911,-10.858 38.911,-27.485 0,-20.586 -18.89,-28.956 -65.151,-28.956 -15.044,0 -29.071,1.356 -38.346,2.94 -1.243,0.339 -1.922,1.018 -2.262,2.263 l -2.601,11.649 c -0.339,1.696 0.339,2.376 2.036,2.036 11.989,-2.036 31.557,-2.941 40.833,-2.941 36.308,0 46.261,3.281 46.261,13.46 0,7.013 -7.125,11.311 -19.793,12.103 l -32.124,1.81 c -26.127,1.471 -38.796,10.181 -38.796,26.694 0,20.134 18.437,28.391 63.115,28.391 14.252,0 27.825,-1.244 36.761,-2.942 C -1.019,1.923 -0.227,1.131 0,0" /></g><g
           transform="translate(554.1997,305.876)"
           id="g36"><path
             id="path38"
             style="fill:#ed1c24;fill-opacity:1;fill-rule:nonzero;stroke:none"
             d="m 0,0 c 0,1.683 0.875,2.459 2.626,2.459 h 17.95 c 1.751,0 2.627,-0.776 2.627,-2.459 v -104.71 c 0,-1.683 -0.876,-2.459 -2.627,-2.459 H 2.626 c -1.751,0 -2.626,0.776 -2.626,2.459 z" /></g><g
           transform="translate(565.7988,175.2461)"
           id="g40"><path
             id="path42"
             style="fill:#000000;fill-opacity:1;fill-rule:evenodd;stroke:none"
             d="M 0,0 4.761,8.247 H -4.756 Z" /></g><g
           transform="translate(563.98,195.5967)"
           id="g44"><path
             id="path46"
             style="fill:#96de31;fill-opacity:1;fill-rule:evenodd;stroke:none"
             d="m 0,0 h -9.78 l 5.801,-10.045 0.528,-0.92 h 5.27 v 7.812 l -1.114,1.927 z" /></g><g
           transform="translate(567.6226,195.5967)"
           id="g48"><path
             id="path50"
             style="fill:#7fc41d;fill-opacity:1;fill-rule:evenodd;stroke:none"
             d="M 0,0 H 9.78 L 3.978,-10.045 3.45,-10.965 h -5.269 v 7.812 l 1.114,1.927 z" /></g><path
           id="path52"
           style="fill:#00004d;fill-opacity:1;fill-rule:nonzero;stroke:none"
           d="M 278,549.5 H 919 V 523.568 H 278 Z" /></g></g><text
       id="text56"
       style="font-variant:normal;font-weight:500;font-stretch:normal;font-size:21.12630081px;font-family:'AICON Med';-inkscape-font-specification:AICON-Medium;writing-mode:lr-tb;fill:#231f20;fill-opacity:1;fill-rule:nonzero;stroke:none"
       transform="matrix(1,0,0,-1,552.9873,147.9502)"><tspan
         id="tspan54"
         y="0"
         x="0 25.964222 53.15377 76.709595 85.160118 112.34966 139.15894 164.21474 189.27052 197.40414 223.66414 247.21996 270.07861">The happiness</tspan></text>
<g
       id="g58"><g
         clip-path="url(#clipPath64)"
         id="g60"><g
           transform="translate(429.5205,215.1211)"
           id="g66"><path
             id="path68"
             style="fill:#00004d;fill-opacity:1;fill-rule:nonzero;stroke:none"
             d="m 0,0 -27.201,31.23 c 8.059,7.391 16.457,13.272 25.186,17.63 8.737,4.369 18.638,6.549 29.72,6.549 13.774,0 26.366,-3.351 37.78,-10.074 11.42,-6.714 20.487,-15.441 27.201,-26.194 6.721,-10.744 10.074,-22.164 10.074,-34.252 0,-16.788 -6.296,-30.225 -18.889,-40.299 -12.594,-10.075 -27.619,-15.112 -45.084,-15.112 -15.781,0 -31.735,3.701 -47.854,11.083 -16.12,7.39 -31.483,16.622 -46.091,27.705 -14.609,11.081 -27.705,22.249 -39.291,33.497 -11.585,11.255 -20.566,20.575 -26.948,27.958 l 17.629,21.658 h 3.527 C -83.115,29.894 -67.751,12.767 -54.15,0 c 13.6,-12.76 26.445,-21.99 38.534,-27.706 12.09,-5.706 24.353,-8.563 36.773,-8.563 16.119,0 28.634,3.614 37.527,10.831 8.901,7.225 13.349,15.868 13.349,25.942 0,8.397 -2.597,14.443 -7.807,18.134 -5.204,3.7 -11.335,5.54 -18.387,5.54 -9.736,0 -18.386,-2.849 -25.942,-8.563 C 12.341,9.91 5.714,4.705 0,0" /></g><g
           transform="translate(452.8101,524.5)"
           id="g70"><path
             id="path72"
             style="fill:#00004d;fill-opacity:1;fill-rule:nonzero;stroke:none"
             d="m 0,0 -0.396,-43.643 h -70.083 c -31.484,0 -56.747,-5.553 -75.797,-16.651 -19.058,-11.105 -28.579,-28.914 -28.579,-53.431 0,-21.21 7.781,-44.073 23.36,-68.59 15.571,-24.526 35.119,-52.025 58.65,-82.508 h 4.97 l 21.372,17.395 c -13.916,15.907 -25.434,29.241 -34.543,40.012 -9.118,10.763 -16.239,20.131 -21.372,28.083 -5.142,7.951 -8.785,15.236 -10.935,21.869 -2.16,6.625 -3.231,13.584 -3.231,20.876 0,15.57 5.879,28.742 17.644,39.513 11.758,10.765 29.737,16.154 53.929,16.154 h 64.116 l -0.994,-158.056 39.764,-25.846 h 4.97 L 41.89,0 Z" /></g><g
           transform="translate(864.9902,355.4639)"
           id="g74"><path
             id="path76"
             style="fill:#00004d;fill-opacity:1;fill-rule:nonzero;stroke:none"
             d="m 0,0 c -12.033,-5.81 -25.519,-8.713 -40.455,-8.713 -11.348,0 -21.721,1.932 -31.12,5.808 -9.408,3.87 -16.948,9.752 -22.615,17.635 -5.673,7.883 -8.507,17.771 -8.507,29.669 0,16.869 5.461,29.459 16.39,37.758 10.924,8.299 25.241,12.448 42.946,12.448 H 9.751 l 4.98,3.32 v 21.369 c 0,8.435 -0.072,17.286 -0.209,26.557 -0.127,8.357 -0.189,16.062 -0.201,23.185 h -34.03 v -43.309 h -24.895 c -17.708,0 -33.268,-1.803 -46.682,-5.395 -13.42,-3.599 -23.859,-9.75 -31.328,-18.465 -7.468,-8.714 -11.203,-20.953 -11.203,-36.721 0,-14.938 3.248,-28.704 9.751,-41.288 6.498,-12.59 15.211,-23.652 26.141,-33.194 10.926,-9.544 23.029,-16.948 36.307,-22.2 13.278,-5.257 26.693,-7.883 40.249,-7.883 14.939,0 29.045,3.248 42.324,9.751 13.277,6.496 25.311,15.56 36.1,27.179 L 32.157,22.821 C 22.751,13.415 12.033,5.81 0,0" /></g><g
           transform="translate(745.7959,401.9438)"
           id="g78"><path
             id="path80"
             style="fill:#00004d;fill-opacity:1;fill-rule:nonzero;stroke:none"
             d="m 0,0 c 0,0.785 0.019,1.552 0.034,2.323 -18.61,-11.029 -34.228,-16.561 -46.84,-16.561 -4.512,0 -9.375,1.334 -14.588,4.017 -5.219,2.677 -9.659,6.904 -13.319,12.684 -3.666,5.775 -5.641,13.174 -5.919,22.2 l -0.846,76.531 83.446,-81.557 c 1.499,6.8 3.86,12.786 7.078,17.963 l -86.084,84.956 h -40.382 c -0.003,-11.079 -0.074,-22.425 -0.21,-34.047 -0.145,-11.838 -0.211,-22.408 -0.211,-31.712 v -10.57 c 0,-3.951 0.138,-7.895 0.422,-11.84 0.278,-7.333 3.026,-15.366 8.245,-24.1 5.213,-8.743 12.19,-17.059 20.931,-24.948 8.734,-7.895 18.459,-14.376 29.175,-19.451 10.71,-5.073 21.564,-7.609 32.558,-7.609 7.327,0 14.799,1.056 22.41,3.171 3.261,0.906 6.522,2.072 9.783,3.468 C 1.898,-24.072 0,-12.378 0,0" /></g><g
           transform="translate(581.2417,524.5)"
           id="g82"><path
             id="path84"
             style="fill:#00004d;fill-opacity:1;fill-rule:nonzero;stroke:none"
             d="M 0,0 1.713,-239.689 -32.914,-264.5 h -4.328 L -36.384,0 Z" /></g><g
           transform="translate(787.752,618.4507)"
           id="g86"><path
             id="path88"
             style="fill:#00004d;fill-opacity:1;fill-rule:nonzero;stroke:none"
             d="m 0,0 c -25.935,17.283 -50.372,29.784 -73.294,37.493 -22.931,7.697 -45.484,11.556 -67.658,11.556 -24.436,0 -44.735,-4.044 -60.891,-12.122 -16.164,-8.085 -28.101,-18.517 -35.801,-31.289 -7.709,-12.784 -11.559,-26.694 -11.559,-41.724 0,-9.778 1.499,-19.829 4.512,-30.163 2.661,-9.165 6.811,-18.398 12.427,-27.702 h 32.093 c -2.195,4.747 -3.984,9.383 -5.335,13.89 -1.692,5.638 -2.538,11.645 -2.538,18.04 0,11.646 2.818,22.553 8.457,32.702 5.638,10.149 14.747,18.508 27.346,25.088 12.587,6.573 28.842,9.869 48.768,9.869 22.552,0 44.822,-4.142 66.81,-12.405 21.989,-8.273 43.503,-19.266 64.557,-32.982 21.046,-13.726 41.527,-29.036 61.454,-45.95 l 15.224,17.477 C 54.126,-40.032 25.937,-17.295 0,0" /></g></g></g></g></svg>